<svg width="1920" height="1080" viewBox="0 0 1920 1080" fill="none" xmlns="http://www.w3.org/2000/svg">
<g id="Page">
<rect id="Rectangle 4" width="1920" height="1080" fill="#7BA7EA"/>
<g id="Polygon 5">
<path d="M1219.39 914.855C1194.05 880.332 1225.49 832.954 1267.15 842.891L1493.1 896.794L2044.21 1103.9C2095.81 1123.29 2075.85 1200.5 2021.32 1192.47L1606.57 1131.34L1355.59 1080.24C1344.39 1077.96 1334.45 1071.6 1327.68 1062.38L1219.39 914.855Z" fill="#508AFB" fill-opacity="0.38"/>
<path d="M1219.39 914.855C1194.05 880.332 1225.49 832.954 1267.15 842.891L1493.1 896.794L2044.21 1103.9C2095.81 1123.29 2075.85 1200.5 2021.32 1192.47L1606.57 1131.34L1355.59 1080.24C1344.39 1077.96 1334.45 1071.6 1327.68 1062.38L1219.39 914.855Z" fill="#508AFB" fill-opacity="0.38"/>
</g>
<g id="Polygon 8">
<path d="M1070.51 568.636C1027.84 572.25 1003.82 520.713 1034.02 490.355L1197.87 325.687L1662.02 -36.4912C1705.48 -70.4009 1760.95 -13.1015 1725.65 29.2338L1457.17 351.219L1282.66 538.697C1274.87 547.061 1264.25 552.227 1252.87 553.192L1070.51 568.636Z" fill="#6A9AF7" fill-opacity="0.38"/>
<path d="M1070.51 568.636C1027.84 572.25 1003.82 520.713 1034.02 490.355L1197.87 325.687L1662.02 -36.4913C1705.48 -70.4009 1760.95 -13.1015 1725.65 29.2338L1457.17 351.219L1282.66 538.697C1274.87 547.061 1264.25 552.227 1252.87 553.192L1070.51 568.636Z" fill="#6A9AF7" fill-opacity="0.38"/>
</g>
<path id="Polygon 2" d="M1137.82 1041.13C1095.15 1044.75 1071.12 993.209 1101.33 962.851L1390.25 672.479C1392.28 670.441 1394.49 668.597 1396.87 666.972L2105.83 181.423C2149.91 151.234 2201.37 207.806 2167.15 248.837L1784.3 707.915L1515.01 997.215C1507.22 1005.58 1496.61 1010.75 1485.22 1011.71L1137.82 1041.13Z" fill="#6797F3" fill-opacity="0.38"/>
<g id="Polygon 4">
<path d="M478.775 1167.54C461.581 1156.19 454.027 1134.8 460.287 1115.17L524.246 914.615L762.234 798.23C791.49 783.923 825.94 803.713 828.32 836.193L854.262 1190.28L825.083 1321.33C818.079 1352.79 781.741 1367.48 754.845 1349.73L478.775 1167.54Z" fill="#508AFB" fill-opacity="0.38"/>
<path d="M588.415 1239.9C541.026 1208.62 466.905 1094.42 475.83 1066.43L524.246 914.615L753.772 672.615C775.262 649.958 891.767 802.398 887.409 847.472L854.262 1190.28L813.404 1373.78C811.581 1381.97 803.568 1381.88 790.925 1373.54L588.415 1239.9Z" fill="#508AFB" fill-opacity="0.38"/>
</g>
<path id="Polygon 4_2" d="M846.818 763.129C804.145 766.743 780.121 715.206 810.327 684.848L1099.25 394.476C1101.28 392.437 1103.49 390.594 1105.86 388.969L1814.83 -96.5802C1858.91 -126.769 1910.37 -70.1966 1876.15 -29.1664L1493.3 429.912L1224.01 719.212C1216.22 727.575 1205.6 732.742 1194.22 733.706L846.818 763.129Z" fill="#6797F3" fill-opacity="0.38"/>
<path id="Polygon 1" d="M108.591 1405.29C68.2894 1405.45 47.2857 1357.38 74.7778 1327.91L515.463 855.547C517.797 853.045 520.402 850.812 523.232 848.888L1859.21 -59.5818C1881.15 -74.4973 1911.12 -67.8206 1924.65 -45.0047L1956.14 8.1103C1966.41 25.4254 1964.22 47.405 1950.75 62.3611L1128.01 975.61L739.06 1388.53C730.41 1397.71 718.369 1402.94 705.754 1402.99L108.591 1405.29Z" fill="#316ADA" fill-opacity="0.38"/>
<path id="Polygon 5_2" d="M339.073 1373.58C299.157 1373.24 278.588 1325.71 305.665 1296.38L732.801 833.736C735.182 831.157 737.85 828.859 740.754 826.887L2041.65 -56.6969C2063.55 -71.5734 2093.46 -64.9352 2107.01 -42.1895L2138.74 11.0558C2149.01 28.298 2146.92 50.2105 2133.57 65.1976L1336.5 960.021L959.889 1363.93C951.096 1373.36 938.748 1378.67 925.855 1378.56L339.073 1373.58Z" fill="#3F62A5" fill-opacity="0.17"/>
<path id="Polygon 10" d="M1226.25 1573.98C1229.51 1613.77 1184.03 1638.54 1152.38 1614.21L653.123 1230.5C650.341 1228.36 647.812 1225.91 645.586 1223.2L-351.628 7.21398C-368.418 -13.259 -364.502 -43.6438 -343.07 -59.1906L-292.9 -95.5839C-276.653 -107.369 -254.642 -107.26 -238.513 -95.3151L724.495 617.883L1160.7 956.561C1170.88 964.469 1177.28 976.288 1178.34 989.139L1226.25 1573.98Z" fill="#3F62A5" fill-opacity="0.17"/>
<path id="Polygon 12" d="M873.688 1731.18C872.584 1767.6 831.585 1788.34 801.59 1767.65L260.919 1394.7C257.309 1392.21 254.074 1389.21 251.312 1385.81L-739.26 164.489C-755.689 144.233 -752.009 114.385 -731.152 98.7259L-650.014 37.811C-634.492 26.1572 -613.324 25.5011 -597.11 36.1712L419.948 705.447L874.341 1022.96C887.061 1031.85 894.442 1046.55 893.972 1062.06L873.688 1731.18Z" fill="#295ABA" fill-opacity="0.12"/>
<path id="Polygon 7" d="M53.0773 1309.58C13.1614 1309.24 -7.40856 1261.71 19.6693 1232.38L446.805 769.733C449.186 767.154 451.854 764.857 454.758 762.885L1755.65 -120.699C1777.56 -135.576 1807.47 -128.938 1821.02 -106.192L1852.74 -52.9468C1863.02 -35.7046 1860.92 -13.7921 1847.57 1.195L1050.5 896.018L673.893 1299.93C665.1 1309.36 652.752 1314.67 639.858 1314.56L53.0773 1309.58Z" fill="#517FD8" fill-opacity="0.17"/>
<path id="Polygon 9" d="M-177.548 -144.337C-191.873 -183.288 -151.358 -219.796 -114.103 -201.507L515.105 107.386C517.937 108.776 520.618 110.454 523.106 112.392L1911.37 1194.08C1932.42 1210.48 1935.14 1241.29 1917.3 1261.13L1876.46 1306.52C1862.89 1321.61 1841.02 1326.02 1822.66 1317.37L616.682 749.281L63.5053 474.654C52.9747 469.426 44.8455 460.364 40.7874 449.33L-177.548 -144.337Z" fill="#517FD8" fill-opacity="0.17"/>
<path id="Polygon 11" d="M1687.14 1514.75C1694.98 1554.28 1651.8 1584.06 1617.63 1562.7L1069.9 1220.18C1066.99 1218.37 1064.31 1216.24 1061.88 1213.82L-84.6977 75.6124C-103.522 56.9249 -102.684 26.2316 -82.8666 8.59997L-36.7326 -32.4461C-21.6932 -45.8269 0.299498 -47.8745 17.5506 -37.5002L1070.94 595.98L1550.45 899.046C1561.12 905.786 1568.54 916.609 1571 928.984L1687.14 1514.75Z" fill="#316ADA" fill-opacity="0.16"/>
</g>
</svg>
